<svg xmlns="http://www.w3.org/2000/svg" width="2696" height="828" viewBox="0 0 2696 828" font-family="Avenir Next, -apple-system, BlinkMacSystemFont, Segoe UI, Roboto, sans-serif"><defs><marker id="ah-_2373737d-100" viewBox="0 0 10 10" markerUnits="userSpaceOnUse" markerWidth="10" markerHeight="7.2" preserveAspectRatio="none" refX="6" refY="5" orient="auto-start-reverse"><polygon points="0,0 10,5 0,10 2.5,5" fill="#73737d"/></marker></defs><rect x="0" y="0" width="2696" height="828" fill="#f1f1f7"/><g transform="translate(2088.0,48.0)"><path d="M -120 81 L -6 81" fill="none" stroke="#73737d" stroke-width="1.5" marker-end="url(#ah-_2373737d-100)"/><path d="M -120 395 L -33 395 Q -25 395 -25 387 L -25 111 Q -25 103 -17 103 L -6 103" fill="none" stroke="#73737d" stroke-width="1.5" marker-end="url(#ah-_2373737d-100)"/><path d="M 220 81 L 334 81" fill="none" stroke="#73737d" stroke-width="1.5" marker-end="url(#ah-_2373737d-100)"/><path d="M -1480 293 L -1386 293 Q -1378 293 -1378 285 L -1378 168 Q -1378 160 -1370 160 L -23 160 Q -15 160 -15 168 L -15 171 Q -15 179 -7 179 L 310 179 Q 318 179 318 171 L 318 111 Q 318 103 326 103 L 334 103" fill="none" stroke="#73737d" stroke-width="1.5" marker-end="url(#ah-_2373737d-100)"/><path d="M -1480 338 L -1410 338 Q -1402 338 -1402 346 L -1402 392 Q -1402 400 -1394 400 L -1043 400 Q -1035 400 -1035 408 L -1035 464 Q -1035 472 -1027 472 L -370 472 Q -362 472 -362 464 L -362 403 Q -362 395 -354 395 L -346 395" fill="none" stroke="#73737d" stroke-width="1.5" marker-end="url(#ah-_2373737d-100)"/><path d="M -1820 468 L -1730 468 Q -1722 468 -1722 460 L -1722 324 Q -1722 316 -1714 316 L -1706 316" fill="none" stroke="#73737d" stroke-width="1.5" marker-end="url(#ah-_2373737d-100)"/><path d="M -1820 499 L -1730 499 Q -1722 499 -1722 507 L -1722 643 Q -1722 651 -1714 651 L -1706 651" fill="none" stroke="#73737d" stroke-width="1.5" marker-end="url(#ah-_2373737d-100)"/><path d="M -1480 473 L -1390 473 Q -1382 473 -1382 465 L -1382 342 Q -1382 334 -1374 334 L -1366 334" fill="none" stroke="#73737d" stroke-width="1.5" marker-end="url(#ah-_2373737d-100)"/><path d="M -1480 316 L -1366 316" fill="none" stroke="#73737d" stroke-width="1.5" marker-end="url(#ah-_2373737d-100)"/><path d="M -1140 298 L -1050 298 Q -1042 298 -1042 290 L -1042 246 Q -1042 238 -1034 238 L -1026 238" fill="none" stroke="#73737d" stroke-width="1.5" marker-end="url(#ah-_2373737d-100)"/><path d="M -800 253 L -686 253" fill="none" stroke="#73737d" stroke-width="1.5" marker-end="url(#ah-_2373737d-100)"/><path d="M -800 222 L -710 222 Q -702 222 -702 214 L -702 104 Q -702 96 -694 96 L -686 96" fill="none" stroke="#73737d" stroke-width="1.5" marker-end="url(#ah-_2373737d-100)"/><path d="M -800 65 L -686 65" fill="none" stroke="#73737d" stroke-width="1.5" marker-end="url(#ah-_2373737d-100)"/><path d="M -460 238 L -346 238" fill="none" stroke="#73737d" stroke-width="1.5" marker-end="url(#ah-_2373737d-100)"/><path d="M -460 81 L -346 81" fill="none" stroke="#73737d" stroke-width="1.5" marker-end="url(#ah-_2373737d-100)"/><path d="M -1140 334 L -1050 334 Q -1042 334 -1042 342 L -1042 371 Q -1042 379 -1034 379 L -1026 379" fill="none" stroke="#73737d" stroke-width="1.5" marker-end="url(#ah-_2373737d-100)"/><path d="M -1140 492 L -1053 492 Q -1045 492 -1045 484 L -1045 418 Q -1045 410 -1037 410 L -1026 410" fill="none" stroke="#73737d" stroke-width="1.5" marker-end="url(#ah-_2373737d-100)"/><rect x="-85" y="72" width="50" height="18" rx="9" fill="#fdfdff" stroke="#d6d7de" stroke-width="1"/><text x="-60" y="81" font-size="11" font-weight="500" text-anchor="middle" dominant-baseline="central" fill="#47474e">informs</text><rect x="-50" y="240" width="50" height="18" rx="9" fill="#fdfdff" stroke="#d6d7de" stroke-width="1"/><text x="-25" y="249" font-size="11" font-weight="500" text-anchor="middle" dominant-baseline="central" fill="#47474e">informs</text><rect x="253" y="72" width="54" height="18" rx="9" fill="#fdfdff" stroke="#d6d7de" stroke-width="1"/><text x="280" y="81" font-size="11" font-weight="500" text-anchor="middle" dominant-baseline="central" fill="#47474e">requires</text><rect x="-723" y="463" width="50" height="18" rx="9" fill="#fdfdff" stroke="#d6d7de" stroke-width="1"/><text x="-698" y="472" font-size="11" font-weight="500" text-anchor="middle" dominant-baseline="central" fill="#47474e">informs</text><rect x="-1742" y="383" width="40" height="18" rx="9" fill="#fdfdff" stroke="#d6d7de" stroke-width="1"/><text x="-1722" y="392" font-size="11" font-weight="500" text-anchor="middle" dominant-baseline="central" fill="#47474e">feeds</text><rect x="-1779.5" y="546" width="115" height="18" rx="9" fill="#fdfdff" stroke="#d6d7de" stroke-width="1"/><text x="-1722" y="555" font-size="11" font-weight="500" text-anchor="middle" dominant-baseline="central" fill="#47474e">related: can go stale</text><rect x="-1453" y="307" width="66" height="18" rx="9" fill="#fdfdff" stroke="#d6d7de" stroke-width="1"/><text x="-1420" y="316" font-size="11" font-weight="500" text-anchor="middle" dominant-baseline="central" fill="#47474e">automates</text><rect x="-1121" y="289" width="60" height="18" rx="9" fill="#fdfdff" stroke="#d6d7de" stroke-width="1"/><text x="-1091" y="298" font-size="11" font-weight="500" text-anchor="middle" dominant-baseline="central" fill="#47474e">produces</text><rect x="-768" y="244" width="56" height="18" rx="9" fill="#fdfdff" stroke="#d6d7de" stroke-width="1"/><text x="-740" y="253" font-size="11" font-weight="500" text-anchor="middle" dominant-baseline="central" fill="#47474e">rolls into</text><rect x="-779" y="213" width="56" height="18" rx="9" fill="#fdfdff" stroke="#d6d7de" stroke-width="1"/><text x="-751" y="222" font-size="11" font-weight="500" text-anchor="middle" dominant-baseline="central" fill="#47474e">rolls into</text><rect x="-759.5" y="56" width="39" height="18" rx="9" fill="#fdfdff" stroke="#d6d7de" stroke-width="1"/><text x="-740" y="65" font-size="11" font-weight="500" text-anchor="middle" dominant-baseline="central" fill="#47474e">starts</text><rect x="-425" y="229" width="50" height="18" rx="9" fill="#fdfdff" stroke="#d6d7de" stroke-width="1"/><text x="-400" y="238" font-size="11" font-weight="500" text-anchor="middle" dominant-baseline="central" fill="#47474e">informs</text><rect x="-425" y="72" width="50" height="18" rx="9" fill="#fdfdff" stroke="#d6d7de" stroke-width="1"/><text x="-400" y="81" font-size="11" font-weight="500" text-anchor="middle" dominant-baseline="central" fill="#47474e">informs</text><rect x="-1121" y="325" width="60" height="18" rx="9" fill="#fdfdff" stroke="#d6d7de" stroke-width="1"/><text x="-1091" y="334" font-size="11" font-weight="500" text-anchor="middle" dominant-baseline="central" fill="#47474e">produces</text><rect x="-1134" y="483" width="84" height="18" rx="9" fill="#fdfdff" stroke="#d6d7de" stroke-width="1"/><text x="-1092" y="492" font-size="11" font-weight="500" text-anchor="middle" dominant-baseline="central" fill="#47474e">related: about</text><g><rect x="0.0" y="0.0" width="220" height="161" rx="10" fill="#fdfdff" stroke="#046eb6" stroke-opacity="0.5" stroke-width="1.5"/><circle class="type-dot" data-shape="ring" cx="16.0" cy="20.0" r="3.1" fill="none" stroke="#046eb6" stroke-width="1.8"/><text x="26.0" y="20.0" font-size="11" font-weight="600" letter-spacing="0.4" dominant-baseline="central" fill="#47474e">GOAL</text><text x="12.0" y="48.0" font-size="14" font-weight="600" fill="#1a1a20">Leaders see delivery</text><text x="12.0" y="67.0" font-size="14" font-weight="600" fill="#1a1a20">health without asking</text><text x="12.0" y="88.0" font-size="12" fill="#62626a">What the reports are for.</text><text x="12.0" y="105.0" font-size="12" fill="#62626a">Without it every report below</text><text x="12.0" y="122.0" font-size="12" fill="#62626a">is output nobody can judge,…</text><rect x="12.0" y="132.0" width="37" height="16" rx="3" fill="#eaeaf0"/><text x="30.5" y="140.0" font-size="11" font-weight="600" text-anchor="middle" dominant-baseline="central" fill="#47474e">High</text></g><g><rect x="-340.0" y="21.0" width="220" height="119" rx="10" fill="#fdfdff" stroke="#c15681" stroke-opacity="0.5" stroke-width="1.5"/><circle class="type-dot" data-shape="ring" cx="-324.0" cy="41.0" r="3.1" fill="none" stroke="#c15681" stroke-width="1.8"/><text x="-314.0" y="41.0" font-size="11" font-weight="600" letter-spacing="0.4" dominant-baseline="central" fill="#47474e">STAKEHOLDER</text><text x="-328.0" y="69.0" font-size="14" font-weight="600" fill="#1a1a20">Executives</text><text x="-328.0" y="90.0" font-size="12" fill="#62626a">Read the quarterly roll-up.</text><text x="-328.0" y="107.0" font-size="12" fill="#62626a">They want trend and risk rather</text><text x="-328.0" y="124.0" font-size="12" fill="#62626a">than ticket detail, and…</text></g><g><rect x="-340.0" y="178.0" width="220" height="119" rx="10" fill="#fdfdff" stroke="#c15681" stroke-opacity="0.5" stroke-width="1.5"/><circle class="type-dot" data-shape="ring" cx="-324.0" cy="198.0" r="3.1" fill="none" stroke="#c15681" stroke-width="1.8"/><text x="-314.0" y="198.0" font-size="11" font-weight="600" letter-spacing="0.4" dominant-baseline="central" fill="#47474e">STAKEHOLDER</text><text x="-328.0" y="226.0" font-size="14" font-weight="600" fill="#1a1a20">Delivery leads</text><text x="-328.0" y="247.0" font-size="12" fill="#62626a">Own each epic and act on its</text><text x="-328.0" y="264.0" font-size="12" fill="#62626a">status every sprint. The</text><text x="-328.0" y="281.0" font-size="12" fill="#62626a">sprint-end report is…</text></g><g><rect x="-340.0" y="335.0" width="220" height="119" rx="10" fill="#fdfdff" stroke="#11839f" stroke-opacity="0.5" stroke-width="1.5"/><rect class="type-dot" data-shape="square" x="-327.5" y="351.5" width="7" height="7" rx="1.5" fill="#11839f"/><text x="-314.0" y="355.0" font-size="11" font-weight="600" letter-spacing="0.4" dominant-baseline="central" fill="#47474e">METRIC</text><text x="-328.0" y="383.0" font-size="14" font-weight="600" fill="#1a1a20">Report lead time</text><text x="-328.0" y="404.0" font-size="12" fill="#62626a">Working days from a sprint or</text><text x="-328.0" y="421.0" font-size="12" fill="#62626a">quarter closing to its report</text><text x="-328.0" y="438.0" font-size="12" fill="#62626a">reaching the readers.…</text></g><g><rect x="340.0" y="0.0" width="220" height="161" rx="10" fill="#fdfdff" stroke="#268536" stroke-opacity="0.5" stroke-width="1.5"/><rect class="type-dot" data-shape="square" x="352.5" y="16.5" width="7" height="7" rx="1.5" fill="#268536"/><text x="366.0" y="20.0" font-size="11" font-weight="600" letter-spacing="0.4" dominant-baseline="central" fill="#47474e">REQUIREMENT</text><text x="352.0" y="48.0" font-size="14" font-weight="600" fill="#1a1a20">Reports need no manual</text><text x="352.0" y="67.0" font-size="14" font-weight="600" fill="#1a1a20">assembly</text><text x="352.0" y="88.0" font-size="12" fill="#62626a">Every figure in every report</text><text x="352.0" y="105.0" font-size="12" fill="#62626a">comes from the work tracker,</text><text x="352.0" y="122.0" font-size="12" fill="#62626a">not from someone copying…</text><rect x="352.0" y="132.0" width="37" height="16" rx="3" fill="#eaeaf0"/><text x="370.5" y="140.0" font-size="11" font-weight="600" text-anchor="middle" dominant-baseline="central" fill="#47474e">High</text></g><g><rect x="-1700.0" y="256.0" width="220" height="119" rx="10" fill="#fdfdff" stroke="#7a8409" stroke-opacity="0.5" stroke-width="1.5"/><circle class="type-dot" data-shape="dot" cx="-1684.0" cy="276.0" r="4" fill="#7a8409"/><text x="-1674.0" y="276.0" font-size="11" font-weight="600" letter-spacing="0.4" dominant-baseline="central" fill="#47474e">IMPLEMENTATION</text><text x="-1688.0" y="304.0" font-size="14" font-weight="600" fill="#1a1a20">Build the report scheduler</text><text x="-1688.0" y="325.0" font-size="12" fill="#62626a">Work done once: connect the</text><text x="-1688.0" y="342.0" font-size="12" fill="#62626a">work tracker and the document</text><text x="-1688.0" y="359.0" font-size="12" fill="#62626a">tool so the reports…</text></g><g><rect x="-2040.0" y="424.0" width="220" height="119" rx="10" fill="#fdfdff" stroke="#469177" stroke-opacity="0.5" stroke-width="1.5"/><circle class="type-dot" data-shape="dot" cx="-2024.0" cy="444.0" r="4" fill="#469177"/><text x="-2014.0" y="444.0" font-size="11" font-weight="600" letter-spacing="0.4" dominant-baseline="central" fill="#47474e">RESOURCE / SYSTEM</text><text x="-2028.0" y="472.0" font-size="14" font-weight="600" fill="#1a1a20">Work tracker</text><text x="-2028.0" y="493.0" font-size="12" fill="#62626a">The system of record every</text><text x="-2028.0" y="510.0" font-size="12" fill="#62626a">report reads from. If it is</text><text x="-2028.0" y="527.0" font-size="12" fill="#62626a">wrong or late, every report…</text></g><g><rect x="-1700.0" y="413.0" width="220" height="119" rx="22" fill="#fdfdff" stroke="#933a76" stroke-opacity="0.5" stroke-width="1.5"/><circle class="type-dot" data-shape="dot" cx="-1684.0" cy="433.0" r="4" fill="#933a76"/><text x="-1674.0" y="433.0" font-size="11" font-weight="600" letter-spacing="0.4" dominant-baseline="central" fill="#47474e">TRIGGER / END</text><text x="-1688.0" y="461.0" font-size="14" font-weight="600" fill="#1a1a20">Every end of sprint</text><text x="-1688.0" y="482.0" font-size="12" fill="#62626a">The cadence that starts the</text><text x="-1688.0" y="499.0" font-size="12" fill="#62626a">sprint-end run. A moment in</text><text x="-1688.0" y="516.0" font-size="12" fill="#62626a">time, so it is a Trigger, not…</text></g><g><rect x="-1020.0" y="21.0" width="220" height="119" rx="22" fill="#fdfdff" stroke="#933a76" stroke-opacity="0.5" stroke-width="1.5"/><circle class="type-dot" data-shape="dot" cx="-1004.0" cy="41.0" r="4" fill="#933a76"/><text x="-994.0" y="41.0" font-size="11" font-weight="600" letter-spacing="0.4" dominant-baseline="central" fill="#47474e">TRIGGER / END</text><text x="-1008.0" y="69.0" font-size="14" font-weight="600" fill="#1a1a20">Quarter end</text><text x="-1008.0" y="90.0" font-size="12" fill="#62626a">Starts the quarterly roll-up.</text><text x="-1008.0" y="107.0" font-size="12" fill="#62626a">Its own trigger, because the</text><text x="-1008.0" y="124.0" font-size="12" fill="#62626a">executives read on a…</text></g><g><rect x="-1360.0" y="247.0" width="220" height="138" rx="10" fill="#fdfdff" stroke="#5181c7" stroke-opacity="0.5" stroke-width="1.5"/><circle class="type-dot" data-shape="dot" cx="-1344.0" cy="267.0" r="4" fill="#5181c7"/><text x="-1334.0" y="267.0" font-size="11" font-weight="600" letter-spacing="0.4" dominant-baseline="central" fill="#47474e">PROCESS</text><text x="-1348.0" y="295.0" font-size="14" font-weight="600" fill="#1a1a20">Assemble each epic&#39;s</text><text x="-1348.0" y="314.0" font-size="14" font-weight="600" fill="#1a1a20">status notes</text><text x="-1348.0" y="335.0" font-size="12" fill="#62626a">The recurring run: pull</text><text x="-1348.0" y="352.0" font-size="12" fill="#62626a">progress, plans and problems</text><text x="-1348.0" y="369.0" font-size="12" fill="#62626a">for each open epic from…</text></g><g><rect x="-1020.0" y="178.0" width="220" height="119" rx="10" fill="#fdfdff" stroke="#935417" stroke-opacity="0.5" stroke-width="1.5"/><rect class="type-dot" data-shape="square" x="-1007.5" y="194.5" width="7" height="7" rx="1.5" fill="#935417"/><text x="-994.0" y="198.0" font-size="11" font-weight="600" letter-spacing="0.4" dominant-baseline="central" fill="#47474e">OUTPUT</text><text x="-1008.0" y="226.0" font-size="14" font-weight="600" fill="#1a1a20">Status notes per epic</text><text x="-1008.0" y="247.0" font-size="12" fill="#62626a">Progress, plans and problems</text><text x="-1008.0" y="264.0" font-size="12" fill="#62626a">for one epic on one page. The</text><text x="-1008.0" y="281.0" font-size="12" fill="#62626a">unit every other report…</text></g><g><rect x="-680.0" y="178.0" width="220" height="119" rx="10" fill="#fdfdff" stroke="#935417" stroke-opacity="0.5" stroke-width="1.5"/><rect class="type-dot" data-shape="square" x="-667.5" y="194.5" width="7" height="7" rx="1.5" fill="#935417"/><text x="-654.0" y="198.0" font-size="11" font-weight="600" letter-spacing="0.4" dominant-baseline="central" fill="#47474e">OUTPUT</text><text x="-668.0" y="226.0" font-size="14" font-weight="600" fill="#1a1a20">Sprint-end report</text><text x="-668.0" y="247.0" font-size="12" fill="#62626a">Every epic&#39;s status notes for</text><text x="-668.0" y="264.0" font-size="12" fill="#62626a">the sprint that just closed,</text><text x="-668.0" y="281.0" font-size="12" fill="#62626a">with what slipped and why,…</text></g><g><rect x="-680.0" y="21.0" width="220" height="119" rx="10" fill="#fdfdff" stroke="#935417" stroke-opacity="0.5" stroke-width="1.5"/><rect class="type-dot" data-shape="square" x="-667.5" y="37.5" width="7" height="7" rx="1.5" fill="#935417"/><text x="-654.0" y="41.0" font-size="11" font-weight="600" letter-spacing="0.4" dominant-baseline="central" fill="#47474e">OUTPUT</text><text x="-668.0" y="69.0" font-size="14" font-weight="600" fill="#1a1a20">Quarterly roll-up</text><text x="-668.0" y="90.0" font-size="12" fill="#62626a">The quarter in one document:</text><text x="-668.0" y="107.0" font-size="12" fill="#62626a">lead time against target, the</text><text x="-668.0" y="124.0" font-size="12" fill="#62626a">epics at risk, and…</text></g><g><rect x="-1020.0" y="335.0" width="220" height="119" rx="10" fill="#fdfdff" stroke="#935417" stroke-opacity="0.5" stroke-width="1.5"/><rect class="type-dot" data-shape="square" x="-1007.5" y="351.5" width="7" height="7" rx="1.5" fill="#935417"/><text x="-994.0" y="355.0" font-size="11" font-weight="600" letter-spacing="0.4" dominant-baseline="central" fill="#47474e">OUTPUT</text><text x="-1008.0" y="383.0" font-size="14" font-weight="600" fill="#1a1a20">Weekly status report</text><text x="-1008.0" y="404.0" font-size="12" fill="#62626a">An older format still produced</text><text x="-1008.0" y="421.0" font-size="12" fill="#62626a">every week. Nobody on the map</text><text x="-1008.0" y="438.0" font-size="12" fill="#62626a">receives it, which is the…</text></g><g><rect x="-1360.0" y="423.0" width="220" height="138" rx="10" fill="#fdfdff" stroke="#0a5e89" stroke-opacity="0.5" stroke-width="1.5"/><path class="type-dot" data-shape="diamond" d="M -1344.0 438.5 L -1339.5 443.0 L -1344.0 447.5 L -1348.5 443.0 Z" fill="#0a5e89"/><text x="-1334.0" y="443.0" font-size="11" font-weight="600" letter-spacing="0.4" dominant-baseline="central" fill="#47474e">OPEN QUESTION</text><text x="-1348.0" y="471.0" font-size="14" font-weight="600" fill="#1a1a20">Does anyone still read the</text><text x="-1348.0" y="490.0" font-size="14" font-weight="600" fill="#1a1a20">weekly report?</text><text x="-1348.0" y="511.0" font-size="12" fill="#62626a">If nobody reads it, retire it</text><text x="-1348.0" y="528.0" font-size="12" fill="#62626a">rather than automate it. Ask</text><text x="-1348.0" y="545.0" font-size="12" fill="#62626a">the delivery leads before…</text></g><g><rect x="-1700.0" y="570.0" width="220" height="162" rx="10" fill="#fdfdff" stroke="#c85030" stroke-opacity="0.5" stroke-width="1.5"/><path class="type-dot" data-shape="diamond" d="M -1684.0 585.5 L -1679.5 590.0 L -1684.0 594.5 L -1688.5 590.0 Z" fill="#c85030"/><text x="-1674.0" y="590.0" font-size="11" font-weight="600" letter-spacing="0.4" dominant-baseline="central" fill="#47474e">RISK</text><text x="-1688.0" y="618.0" font-size="14" font-weight="600" fill="#1a1a20">Tracker data is stale or</text><text x="-1688.0" y="637.0" font-size="14" font-weight="600" fill="#1a1a20">incomplete</text><text x="-1688.0" y="658.0" font-size="12" fill="#62626a">Epics not updated before the</text><text x="-1688.0" y="675.0" font-size="12" fill="#62626a">trigger fires turn into</text><text x="-1688.0" y="692.0" font-size="12" fill="#62626a">confident reports of old…</text></g></g><text x="48" y="812" font-size="12" font-weight="600" fill="#47474e">Recurring Reporting Flow</text></svg>
